<svg xmlns="http://www.w3.org/2000/svg" version="1.1" xmlns:xlink="http://www.w3.org/1999/xlink" x="0" y="0" viewBox="0 0 24 24" style="enable-background:new 0 0 512 512" xml:space="preserve" class=""><g transform="matrix(6.123233995736766e-17,-1,1,6.123233995736766e-17,0,24)"><symbol xmlns="http://www.w3.org/2000/svg" id="material_x5F_system_x5F_icon_x5F_border" viewBox="0 -48 48 48"></symbol><symbol xmlns="http://www.w3.org/2000/svg" id="material_x5F_system_x5F_icon_x5F_grid" viewBox="-.0002 -48 48.0002 48.0002"><g><g clip-path="url(#SVGID_2_)"><g></g><g></g><g><path d="m47.75-.25v-47.5h-47.5v47.5zm.25.25h-48v-48h48z" fill="#000000" data-original="#000000" class=""></path></g></g></g></symbol><clipPath xmlns="http://www.w3.org/2000/svg" id="SVGID_2_"><path id="SVGID_1_" d="m0-48h48v48h-48z" fill="#000000" data-original="#000000" class=""></path></clipPath><symbol xmlns="http://www.w3.org/2000/svg" id="material_x5F_system_x5F_icon_x5F_keylines" viewBox="-.0002 -48.0001 48.0002 48.0001"><g opacity=".4"><g clip-path="url(#SVGID_4_)"><path d="m47.75-.25v-47.5h-47.5v47.5zm.25.25h-48v-48h48z" fill="#000000" data-original="#000000" class=""></path></g></g></symbol><clipPath xmlns="http://www.w3.org/2000/svg" id="SVGID_4_"><path id="SVGID_3_" d="m0-48h48v48h-48z" fill="#000000" data-original="#000000" class=""></path></clipPath><g xmlns="http://www.w3.org/2000/svg" id="Backup" display="none"><g display="inline"><g><path d="m4 18v-12c0-1.1046.8954-2 2-2h12c1.1046 0 2 .8954 2 2v12c0 1.1046-.8954 2-2 2h-12c-1.1046 0-2-.8954-2-2z" fill="#000000" data-original="#000000" class=""></path></g><g><g><path d="m11 16c0-.5523.4477-1 1-1 .5523 0 1 .4477 1 1 0 .5523-.4477 1-1 1-.5523 0-1-.4477-1-1z" fill="#ffffff" data-original="#ffffff" class=""></path></g><g><path d="m11 12c0-.5523.4477-1 1-1 .5523 0 1 .4477 1 1 0 .5523-.4477 1-1 1-.5523 0-1-.4477-1-1z" fill="#ffffff" data-original="#ffffff" class=""></path></g><g><path d="m11 8c0-.5523.4477-1 1-1 .5523 0 1 .4477 1 1 0 .5523-.4477 1-1 1-.5523 0-1-.4477-1-1z" fill="#ffffff" data-original="#ffffff" class=""></path></g></g></g></g><g xmlns="http://www.w3.org/2000/svg" id="Grid" display="none" transform="scale(.5 -.5)"><use id="XMLID_36_" display="inline" height="48" opacity=".15" width="48" xmlns:xlink="http://www.w3.org/1999/xlink" xlink:href="#material_x5F_system_x5F_icon_x5F_grid" y="-48"></use><use id="XMLID_35_" display="inline" height="48" width="48" xmlns:xlink="http://www.w3.org/1999/xlink" xlink:href="#material_x5F_system_x5F_icon_x5F_border" y="-48"></use></g><g xmlns="http://www.w3.org/2000/svg" id="Keyline" display="none"><use id="XMLID_11_" display="inline" height="48" transform="scale(.5 -.5)" width="48" xmlns:xlink="http://www.w3.org/1999/xlink" xlink:href="#material_x5F_system_x5F_icon_x5F_keylines" y="-48"></use></g><g xmlns="http://www.w3.org/2000/svg" id="Outline" display="none"><g display="inline"><path d="m10.2222 12c0-.9818.7959-1.7778 1.7778-1.7778.9818 0 1.7778.7959 1.7778 1.7778 0 .9818-.7959 1.7778-1.7778 1.7778-.9818 0-1.7778-.796-1.7778-1.7778z" fill="#000000" data-original="#000000" class=""></path><path d="m10.2222 18.2222c0-.9818.7959-1.7778 1.7778-1.7778.9818 0 1.7778.7959 1.7778 1.7778 0 .9819-.796 1.7778-1.7778 1.7778-.9818 0-1.7778-.7959-1.7778-1.7778z" fill="#000000" data-original="#000000" class=""></path><g><path d="m10.2222 5.7778c0-.9819.796-1.7778 1.7778-1.7778.9818 0 1.7778.7959 1.7778 1.7778 0 .9818-.7959 1.7778-1.7778 1.7778-.9818 0-1.7778-.796-1.7778-1.7778z" fill="#000000" data-original="#000000" class=""></path></g></g></g><g xmlns="http://www.w3.org/2000/svg" id="Filled"><g><path d="m10.2222 12c0-.9818.7959-1.7778 1.7778-1.7778.9818 0 1.7778.7959 1.7778 1.7778 0 .9818-.7959 1.7778-1.7778 1.7778-.9818 0-1.7778-.796-1.7778-1.7778z" fill="#000000" data-original="#000000" class=""></path><path d="m10.2222 18.2222c0-.9818.7959-1.7778 1.7778-1.7778.9818 0 1.7778.7959 1.7778 1.7778 0 .9819-.796 1.7778-1.7778 1.7778-.9818 0-1.7778-.7959-1.7778-1.7778z" fill="#000000" data-original="#000000" class=""></path><path d="m10.2222 5.7778c0-.9819.796-1.7778 1.7778-1.7778.9818 0 1.7778.7959 1.7778 1.7778 0 .9818-.7959 1.7778-1.7778 1.7778-.9818 0-1.7778-.796-1.7778-1.7778z" fill="#000000" data-original="#000000" class=""></path></g></g><g xmlns="http://www.w3.org/2000/svg" id="Two_Tone" display="none"><g display="inline"><path d="m10.2222 12c0-.9818.7959-1.7778 1.7778-1.7778.9818 0 1.7778.7959 1.7778 1.7778 0 .9818-.7959 1.7778-1.7778 1.7778-.9818 0-1.7778-.796-1.7778-1.7778z" fill="#000000" data-original="#000000" class=""></path><g><path d="m10.2222 18.2222c0-.9818.7959-1.7778 1.7778-1.7778.9818 0 1.7778.7959 1.7778 1.7778 0 .9819-.796 1.7778-1.7778 1.7778-.9818 0-1.7778-.7959-1.7778-1.7778z" fill="#00d6a2" data-original="#00d6a2"></path></g><g><g><path d="m10.2222 5.7778c0-.9819.796-1.7778 1.7778-1.7778.9818 0 1.7778.7959 1.7778 1.7778 0 .9818-.7959 1.7778-1.7778 1.7778-.9818 0-1.7778-.796-1.7778-1.7778z" fill="#00d6a2" data-original="#00d6a2"></path></g></g></g></g></g></svg>